{
	"asset": {
		"generator": "Blocks 4.0.1RC0 SVR",
		"version": "1.1",
		"copyright": "Unknown"
	},
	"buffers": {
		"model": {
			"byteLength": 1698804,
			"type": "arraybuffer",
			"uri": "model.bin"
		}
	},
	"accessors": {
		"accessor_position_m1-PolyPaper9_-1969826": {
			"bufferView": "vec3BufferView",
			"byteOffset": 0,
			"byteStride": 12,
			"componentType": 5126,
			"count": 6586,
			"max": [ 1.18212, 0.9668667, -0.6575093 ],
			"min": [ 0.1796057, 0.6053744, -1.460868 ],
			"type": "VEC3"
		 },
		"accessor_normal_m1-PolyPaper9_-1969826": {
			"bufferView": "vec3BufferView",
			"byteOffset": 79032,
			"byteStride": 12,
			"componentType": 5126,
			"count": 6586,
			"max": [ 0.9824214, 0.9988077, 0.9858563 ],
			"min": [ -0.9921753, -0.9584156, -0.9965369 ],
			"type": "VEC3"
		 },
		"accessor_color_m1-PolyPaper9_-1969826": {
			"bufferView": "vec4BufferView",
			"byteOffset": 0,
			"byteStride": 16,
			"componentType": 5126,
			"count": 6586,
			"max": [ 1, 0.9215686, 0.3137255, 1 ],
			"min": [ 0.1019608, 0.1019608, 0.1019608, 1 ],
			"type": "VEC4"
		 },
		"accessor_indices_0_m1-PolyPaper9_-1969826": {
			"bufferView": "ushortBufferView",
			"byteOffset": 0,
			"byteStride": 0,
			"componentType": 5123,
			"count": 10608,
			"max": [ 6585 ],
			"min": [ 0 ],
			"type": "SCALAR"
		 },
		"accessor_position_m2-PolyPaper9_-1969832": {
			"bufferView": "vec3BufferView",
			"byteOffset": 158064,
			"byteStride": 12,
			"componentType": 5126,
			"count": 19995,
			"max": [ 0.9891074, 0.8956637, -0.5930938 ],
			"min": [ 0.2958022, 0.3091186, -1.13222 ],
			"type": "VEC3"
		 },
		"accessor_normal_m2-PolyPaper9_-1969832": {
			"bufferView": "vec3BufferView",
			"byteOffset": 398004,
			"byteStride": 12,
			"componentType": 5126,
			"count": 19995,
			"max": [ 0.9999261, 0.9997981, 0.9998568 ],
			"min": [ -0.9998027, -0.999589, -0.9999952 ],
			"type": "VEC3"
		 },
		"accessor_color_m2-PolyPaper9_-1969832": {
			"bufferView": "vec4BufferView",
			"byteOffset": 105376,
			"byteStride": 16,
			"componentType": 5126,
			"count": 19995,
			"max": [ 1, 1, 1, 1 ],
			"min": [ 0.1019608, 0.1019608, 0.1019608, 1 ],
			"type": "VEC4"
		 },
		"accessor_indices_0_m2-PolyPaper9_-1969832": {
			"bufferView": "ushortBufferView",
			"byteOffset": 21216,
			"byteStride": 0,
			"componentType": 5123,
			"count": 27621,
			"max": [ 19994 ],
			"min": [ 0 ],
			"type": "SCALAR"
		 },
		"accessor_position_m3-PolyPaper12_-1969838": {
			"bufferView": "vec3BufferView",
			"byteOffset": 637944,
			"byteStride": 12,
			"componentType": 5126,
			"count": 13091,
			"max": [ 0.8432513, 0.7764094, -0.8255637 ],
			"min": [ 0.6902375, 0.5198253, -0.9850875 ],
			"type": "VEC3"
		 },
		"accessor_normal_m3-PolyPaper12_-1969838": {
			"bufferView": "vec3BufferView",
			"byteOffset": 795036,
			"byteStride": 12,
			"componentType": 5126,
			"count": 13091,
			"max": [ 0.9986708, 0.9998645, 0.9999722 ],
			"min": [ -0.9999743, -0.9986269, -0.9998518 ],
			"type": "VEC3"
		 },
		"accessor_color_m3-PolyPaper12_-1969838": {
			"bufferView": "vec4BufferView",
			"byteOffset": 425296,
			"byteStride": 16,
			"componentType": 5126,
			"count": 13091,
			"max": [ 1, 0.9215686, 0.282353, 1 ],
			"min": [ 0.1019608, 0.1019608, 0.1019608, 1 ],
			"type": "VEC4"
		 },
		"accessor_indices_0_m3-PolyPaper12_-1969838": {
			"bufferView": "ushortBufferView",
			"byteOffset": 76458,
			"byteStride": 0,
			"componentType": 5123,
			"count": 17733,
			"max": [ 13090 ],
			"min": [ 0 ],
			"type": "SCALAR"
		 }
	},
	"bufferViews": {
		"ushortBufferView": {
			"buffer": "model",
			"byteLength": 111924,
			"byteOffset": 0,
			"target": 34963
		},
		"vec3BufferView": {
			"buffer": "model",
			"byteLength": 952128,
			"byteOffset": 111924,
			"target": 34962
		},
		"vec4BufferView": {
			"buffer": "model",
			"byteLength": 634752,
			"byteOffset": 1064052,
			"target": 34962
		}
	},
	"meshes": {
		"mesh_m1-PolyPaper9_-1969826": {
			"name": "mesh_m1-PolyPaper9_-1969826",
			"primitives": [
				{
					"attributes": {
						"POSITION": "accessor_position_m1-PolyPaper9_-1969826",
						"NORMAL": "accessor_normal_m1-PolyPaper9_-1969826",
						"COLOR": "accessor_color_m1-PolyPaper9_-1969826"
					},
					"indices": "accessor_indices_0_m1-PolyPaper9_-1969826",
					"material": "material_mat9",
					"mode": 4
				}
			]
		},
		"mesh_m2-PolyPaper9_-1969832": {
			"name": "mesh_m2-PolyPaper9_-1969832",
			"primitives": [
				{
					"attributes": {
						"POSITION": "accessor_position_m2-PolyPaper9_-1969832",
						"NORMAL": "accessor_normal_m2-PolyPaper9_-1969832",
						"COLOR": "accessor_color_m2-PolyPaper9_-1969832"
					},
					"indices": "accessor_indices_0_m2-PolyPaper9_-1969832",
					"material": "material_mat9",
					"mode": 4
				}
			]
		},
		"mesh_m3-PolyPaper12_-1969838": {
			"name": "mesh_m3-PolyPaper12_-1969838",
			"primitives": [
				{
					"attributes": {
						"POSITION": "accessor_position_m3-PolyPaper12_-1969838",
						"NORMAL": "accessor_normal_m3-PolyPaper12_-1969838",
						"COLOR": "accessor_color_m3-PolyPaper12_-1969838"
					},
					"indices": "accessor_indices_0_m3-PolyPaper12_-1969838",
					"material": "material_mat12",
					"mode": 4
				}
			]
		}
	},
	"shaders": {
		"vertex_mat8": {
			"type": 35633,
			"uri": "https://vr.google.com/shaders/w/vs.glsl"
		},
		"fragment_mat8": {
			"type": 35632,
			"uri": "https://vr.google.com/shaders/w/fs.glsl"
		},
		"vertex_mat9": {
			"type": 35633,
			"uri": "https://vr.google.com/shaders/w/vs.glsl"
		},
		"fragment_mat9": {
			"type": 35632,
			"uri": "https://vr.google.com/shaders/w/fs.glsl"
		},
		"vertex_mat12": {
			"type": 35633,
			"uri": "https://vr.google.com/shaders/w/vs.glsl"
		},
		"fragment_mat12": {
			"type": 35632,
			"uri": "https://vr.google.com/shaders/w/fs.glsl"
		}
	},
	"programs": {
		"program_mat8": {
			"attributes": [
				"a_position",
				"a_normal",
				"a_color"				
			],
			"vertexShader": "vertex_mat8",
			"fragmentShader": "fragment_mat8"
		},
		"program_mat9": {
			"attributes": [
				"a_position",
				"a_normal",
				"a_color"				
			],
			"vertexShader": "vertex_mat9",
			"fragmentShader": "fragment_mat9"
		},
		"program_mat12": {
			"attributes": [
				"a_position",
				"a_normal",
				"a_color"				
			],
			"vertexShader": "vertex_mat12",
			"fragmentShader": "fragment_mat12"
		}
	},
	"techniques": {
		"technique_mat8": {
			"program": "program_mat8",
			"extras": {"gvrss" : "https://vr.google.com/shaders/w/gvrss/paper.json"},
			"parameters": {
				"position": {
					"type": 35665,
					"semantic": "POSITION"
				},
				"normal": {
					"type": 35665,
					"semantic": "NORMAL"
				},
				"color": {
					"type": 35666,
					"semantic": "COLOR"
				},
				"modelViewMatrix": {
					"type": 35676,
					"semantic": "MODELVIEW"
				},
				"projectionMatrix": {
					"type": 35676,
					"semantic": "PROJECTION"
				},
				"normalMatrix": {
					"type": 35675,
					"semantic": "MODELVIEWINVERSETRANSPOSE"
				},
				"color": {
					"type": 35666
				},
				"roughness": {
					"type": 5126
				},
				"metallic": {
					"type": 5126
				},
				"light0Pos": {
					"type": 35666
				},
				"light0Color": {
					"type": 35666
				},
				"light1Pos": {
					"type": 35666
				},
				"light1Color": {
					"type": 35666
				}				
			},
			"attributes": {
				"a_position": "position",
				"a_normal": "normal",
				"a_color": "color"				
			},
			"uniforms": {
				"u_modelViewMatrix": "modelViewMatrix",
				"u_projectionMatrix": "projectionMatrix",
				"u_normalMatrix": "normalMatrix",
				"u_color": "color",
				"u_roughness": "roughness",
				"u_metallic": "metallic",
				"u_light0Pos": "light0Pos",
				"u_light0Color": "light0Color",
				"u_light1Pos": "light1Pos",
				"u_light1Color": "light1Color"				
			},
			"states": {
				"enable": [
					2929,
					2884
				],
				"functions": {
					"cullFace": [1029]
				}
			}
		},
		"technique_mat9": {
			"program": "program_mat9",
			"extras": {"gvrss" : "https://vr.google.com/shaders/w/gvrss/paper.json"},
			"parameters": {
				"position": {
					"type": 35665,
					"semantic": "POSITION"
				},
				"normal": {
					"type": 35665,
					"semantic": "NORMAL"
				},
				"color": {
					"type": 35666,
					"semantic": "COLOR"
				},
				"modelViewMatrix": {
					"type": 35676,
					"semantic": "MODELVIEW"
				},
				"projectionMatrix": {
					"type": 35676,
					"semantic": "PROJECTION"
				},
				"normalMatrix": {
					"type": 35675,
					"semantic": "MODELVIEWINVERSETRANSPOSE"
				},
				"color": {
					"type": 35666
				},
				"roughness": {
					"type": 5126
				},
				"metallic": {
					"type": 5126
				},
				"light0Pos": {
					"type": 35666
				},
				"light0Color": {
					"type": 35666
				},
				"light1Pos": {
					"type": 35666
				},
				"light1Color": {
					"type": 35666
				}				
			},
			"attributes": {
				"a_position": "position",
				"a_normal": "normal",
				"a_color": "color"				
			},
			"uniforms": {
				"u_modelViewMatrix": "modelViewMatrix",
				"u_projectionMatrix": "projectionMatrix",
				"u_normalMatrix": "normalMatrix",
				"u_color": "color",
				"u_roughness": "roughness",
				"u_metallic": "metallic",
				"u_light0Pos": "light0Pos",
				"u_light0Color": "light0Color",
				"u_light1Pos": "light1Pos",
				"u_light1Color": "light1Color"				
			},
			"states": {
				"enable": [
					2929,
					2884
				],
				"functions": {
					"cullFace": [1029]
				}
			}
		},
		"technique_mat12": {
			"program": "program_mat12",
			"extras": {"gvrss" : "https://vr.google.com/shaders/w/gvrss/paper.json"},
			"parameters": {
				"position": {
					"type": 35665,
					"semantic": "POSITION"
				},
				"normal": {
					"type": 35665,
					"semantic": "NORMAL"
				},
				"color": {
					"type": 35666,
					"semantic": "COLOR"
				},
				"modelViewMatrix": {
					"type": 35676,
					"semantic": "MODELVIEW"
				},
				"projectionMatrix": {
					"type": 35676,
					"semantic": "PROJECTION"
				},
				"normalMatrix": {
					"type": 35675,
					"semantic": "MODELVIEWINVERSETRANSPOSE"
				},
				"color": {
					"type": 35666
				},
				"roughness": {
					"type": 5126
				},
				"metallic": {
					"type": 5126
				},
				"light0Pos": {
					"type": 35666
				},
				"light0Color": {
					"type": 35666
				},
				"light1Pos": {
					"type": 35666
				},
				"light1Color": {
					"type": 35666
				}				
			},
			"attributes": {
				"a_position": "position",
				"a_normal": "normal",
				"a_color": "color"				
			},
			"uniforms": {
				"u_modelViewMatrix": "modelViewMatrix",
				"u_projectionMatrix": "projectionMatrix",
				"u_normalMatrix": "normalMatrix",
				"u_color": "color",
				"u_roughness": "roughness",
				"u_metallic": "metallic",
				"u_light0Pos": "light0Pos",
				"u_light0Color": "light0Color",
				"u_light1Pos": "light1Pos",
				"u_light1Color": "light1Color"				
			},
			"states": {
				"enable": [
					2929,
					2884
				],
				"functions": {
					"cullFace": [1029]
				}
			}
		}
	},
	"materials": {
		"material_mat8": {
			"technique": "technique_mat8",
			"values": {
				"color": [0.9568627, 0.2627451, 0.2117647, 1],
				"roughness": 1,
				"metallic": 0,
				"light0Pos": [-0.02, 4.11, -0.54, 0],
				"light0Color": [1.28, 1.232075, 1.101177, 0],
				"light1Pos": [0.02, -4.11, 0.54, 0],
				"light1Color": [0.2941177, 0.2953672, 0.32, 0]				
			},
			"name": "material_mat8"
		},
		"material_mat9": {
			"technique": "technique_mat9",
			"values": {
				"color": [0.5450981, 0.7647059, 0.2901961, 1],
				"roughness": 1,
				"metallic": 0,
				"light0Pos": [-0.02, 4.11, -0.54, 0],
				"light0Color": [1.28, 1.232075, 1.101177, 0],
				"light1Pos": [0.02, -4.11, 0.54, 0],
				"light1Color": [0.2941177, 0.2953672, 0.32, 0]				
			},
			"name": "material_mat9"
		},
		"material_mat12": {
			"technique": "technique_mat12",
			"values": {
				"color": [1, 0.9215686, 0.2313726, 1],
				"roughness": 1,
				"metallic": 0,
				"light0Pos": [-0.02, 4.11, -0.54, 0],
				"light0Color": [1.28, 1.232075, 1.101177, 0],
				"light1Pos": [0.02, -4.11, 0.54, 0],
				"light1Color": [0.2941177, 0.2953672, 0.32, 0]				
			},
			"name": "material_mat12"
		}
	},
	"nodes": {
		"node_MeshObject316262400-PolyPaper9": {
			"name": "node_MeshObject316262400-PolyPaper9",
			"meshes": [
				"mesh_m1-PolyPaper9_-1969826"
			],
			"matrix": [1, 0, 0, 0, 0, 1, 0, 0, 0, 0, 1, 0, 0, 0, 0, 1]
		},
		"node_MeshObject888341504-PolyPaper9": {
			"name": "node_MeshObject888341504-PolyPaper9",
			"meshes": [
				"mesh_m2-PolyPaper9_-1969832"
			],
			"matrix": [1, 0, 0, 0, 0, 1, 0, 0, 0, 0, 1, 0, 0, 0, 0, 1]
		},
		"node_MeshObject1460420608-PolyPaper12": {
			"name": "node_MeshObject1460420608-PolyPaper12",
			"meshes": [
				"mesh_m3-PolyPaper12_-1969838"
			],
			"matrix": [1, 0, 0, 0, 0, 1, 0, 0, 0, 0, 1, 0, 0, 0, 0, 1]
		}
	},
	"scene": "defaultScene",
	"scenes": {
		"defaultScene": {
			"nodes": [
				"node_MeshObject316262400-PolyPaper9",
				"node_MeshObject888341504-PolyPaper9",
				"node_MeshObject1460420608-PolyPaper12"
			],
			"extras": {

			}
		}
	}
}