{
	"asset": {
		"generator": "Blocks 4.0.1RC0 SVR",
		"version": "1.1",
		"copyright": "Unknown"
	},
	"buffers": {
		"model": {
			"byteLength": 267068,
			"type": "arraybuffer",
			"uri": "model.bin"
		}
	},
	"accessors": {
		"accessor_position_m0-PolyPaper8_-683126": {
			"bufferView": "vec3BufferView",
			"byteOffset": 0,
			"byteStride": 12,
			"componentType": 5126,
			"count": 4568,
			"max": [ -0.06150755, 1.085701, -0.6315296 ],
			"min": [ -0.7268808, 0.1724375, -1.269268 ],
			"type": "VEC3"
		 },
		"accessor_normal_m0-PolyPaper8_-683126": {
			"bufferView": "vec3BufferView",
			"byteOffset": 54816,
			"byteStride": 12,
			"componentType": 5126,
			"count": 4568,
			"max": [ 0.9992444, 0.999693, 0.9921228 ],
			"min": [ -0.9946533, -0.9990141, -0.9999566 ],
			"type": "VEC3"
		 },
		"accessor_color_m0-PolyPaper8_-683126": {
			"bufferView": "vec4BufferView",
			"byteOffset": 0,
			"byteStride": 16,
			"componentType": 5126,
			"count": 4568,
			"max": [ 1, 1, 1, 1 ],
			"min": [ 0.1019608, 0.1019608, 0.1019608, 1 ],
			"type": "VEC4"
		 },
		"accessor_indices_0_m0-PolyPaper8_-683126": {
			"bufferView": "ushortBufferView",
			"byteOffset": 0,
			"byteStride": 0,
			"componentType": 5123,
			"count": 5850,
			"max": [ 4567 ],
			"min": [ 0 ],
			"type": "SCALAR"
		 },
		"accessor_position_m1-PolyPaper9_-683132": {
			"bufferView": "vec3BufferView",
			"byteOffset": 109632,
			"byteStride": 12,
			"componentType": 5126,
			"count": 1692,
			"max": [ -0.3115205, 0.9291292, -0.7612166 ],
			"min": [ -0.4838287, 0.6655162, -0.8532084 ],
			"type": "VEC3"
		 },
		"accessor_normal_m1-PolyPaper9_-683132": {
			"bufferView": "vec3BufferView",
			"byteOffset": 129936,
			"byteStride": 12,
			"componentType": 5126,
			"count": 1692,
			"max": [ 0.992333, 0.9908934, 0.9977962 ],
			"min": [ -0.9923329, -0.9908933, -0.9977962 ],
			"type": "VEC3"
		 },
		"accessor_color_m1-PolyPaper9_-683132": {
			"bufferView": "vec4BufferView",
			"byteOffset": 73088,
			"byteStride": 16,
			"componentType": 5126,
			"count": 1692,
			"max": [ 0.9568627, 0.2627451, 0.2117647, 1 ],
			"min": [ 0.1019608, 0.1019608, 0.1019608, 1 ],
			"type": "VEC4"
		 },
		"accessor_indices_0_m1-PolyPaper9_-683132": {
			"bufferView": "ushortBufferView",
			"byteOffset": 11700,
			"byteStride": 0,
			"componentType": 5123,
			"count": 2484,
			"max": [ 1691 ],
			"min": [ 0 ],
			"type": "SCALAR"
		 }
	},
	"bufferViews": {
		"ushortBufferView": {
			"buffer": "model",
			"byteLength": 16668,
			"byteOffset": 0,
			"target": 34963
		},
		"vec3BufferView": {
			"buffer": "model",
			"byteLength": 150240,
			"byteOffset": 16668,
			"target": 34962
		},
		"vec4BufferView": {
			"buffer": "model",
			"byteLength": 100160,
			"byteOffset": 166908,
			"target": 34962
		}
	},
	"meshes": {
		"mesh_m0-PolyPaper8_-683126": {
			"name": "mesh_m0-PolyPaper8_-683126",
			"primitives": [
				{
					"attributes": {
						"POSITION": "accessor_position_m0-PolyPaper8_-683126",
						"NORMAL": "accessor_normal_m0-PolyPaper8_-683126",
						"COLOR": "accessor_color_m0-PolyPaper8_-683126"
					},
					"indices": "accessor_indices_0_m0-PolyPaper8_-683126",
					"material": "material_mat8",
					"mode": 4
				}
			]
		},
		"mesh_m1-PolyPaper9_-683132": {
			"name": "mesh_m1-PolyPaper9_-683132",
			"primitives": [
				{
					"attributes": {
						"POSITION": "accessor_position_m1-PolyPaper9_-683132",
						"NORMAL": "accessor_normal_m1-PolyPaper9_-683132",
						"COLOR": "accessor_color_m1-PolyPaper9_-683132"
					},
					"indices": "accessor_indices_0_m1-PolyPaper9_-683132",
					"material": "material_mat9",
					"mode": 4
				}
			]
		}
	},
	"shaders": {
		"vertex_mat8": {
			"type": 35633,
			"uri": "https://vr.google.com/shaders/w/vs.glsl"
		},
		"fragment_mat8": {
			"type": 35632,
			"uri": "https://vr.google.com/shaders/w/fs.glsl"
		},
		"vertex_mat9": {
			"type": 35633,
			"uri": "https://vr.google.com/shaders/w/vs.glsl"
		},
		"fragment_mat9": {
			"type": 35632,
			"uri": "https://vr.google.com/shaders/w/fs.glsl"
		}
	},
	"programs": {
		"program_mat8": {
			"attributes": [
				"a_position",
				"a_normal",
				"a_color"				
			],
			"vertexShader": "vertex_mat8",
			"fragmentShader": "fragment_mat8"
		},
		"program_mat9": {
			"attributes": [
				"a_position",
				"a_normal",
				"a_color"				
			],
			"vertexShader": "vertex_mat9",
			"fragmentShader": "fragment_mat9"
		}
	},
	"techniques": {
		"technique_mat8": {
			"program": "program_mat8",
			"extras": {"gvrss" : "https://vr.google.com/shaders/w/gvrss/paper.json"},
			"parameters": {
				"position": {
					"type": 35665,
					"semantic": "POSITION"
				},
				"normal": {
					"type": 35665,
					"semantic": "NORMAL"
				},
				"color": {
					"type": 35666,
					"semantic": "COLOR"
				},
				"modelViewMatrix": {
					"type": 35676,
					"semantic": "MODELVIEW"
				},
				"projectionMatrix": {
					"type": 35676,
					"semantic": "PROJECTION"
				},
				"normalMatrix": {
					"type": 35675,
					"semantic": "MODELVIEWINVERSETRANSPOSE"
				},
				"color": {
					"type": 35666
				},
				"roughness": {
					"type": 5126
				},
				"metallic": {
					"type": 5126
				},
				"light0Pos": {
					"type": 35666
				},
				"light0Color": {
					"type": 35666
				},
				"light1Pos": {
					"type": 35666
				},
				"light1Color": {
					"type": 35666
				}				
			},
			"attributes": {
				"a_position": "position",
				"a_normal": "normal",
				"a_color": "color"				
			},
			"uniforms": {
				"u_modelViewMatrix": "modelViewMatrix",
				"u_projectionMatrix": "projectionMatrix",
				"u_normalMatrix": "normalMatrix",
				"u_color": "color",
				"u_roughness": "roughness",
				"u_metallic": "metallic",
				"u_light0Pos": "light0Pos",
				"u_light0Color": "light0Color",
				"u_light1Pos": "light1Pos",
				"u_light1Color": "light1Color"				
			},
			"states": {
				"enable": [
					2929,
					2884
				],
				"functions": {
					"cullFace": [1029]
				}
			}
		},
		"technique_mat9": {
			"program": "program_mat9",
			"extras": {"gvrss" : "https://vr.google.com/shaders/w/gvrss/paper.json"},
			"parameters": {
				"position": {
					"type": 35665,
					"semantic": "POSITION"
				},
				"normal": {
					"type": 35665,
					"semantic": "NORMAL"
				},
				"color": {
					"type": 35666,
					"semantic": "COLOR"
				},
				"modelViewMatrix": {
					"type": 35676,
					"semantic": "MODELVIEW"
				},
				"projectionMatrix": {
					"type": 35676,
					"semantic": "PROJECTION"
				},
				"normalMatrix": {
					"type": 35675,
					"semantic": "MODELVIEWINVERSETRANSPOSE"
				},
				"color": {
					"type": 35666
				},
				"roughness": {
					"type": 5126
				},
				"metallic": {
					"type": 5126
				},
				"light0Pos": {
					"type": 35666
				},
				"light0Color": {
					"type": 35666
				},
				"light1Pos": {
					"type": 35666
				},
				"light1Color": {
					"type": 35666
				}				
			},
			"attributes": {
				"a_position": "position",
				"a_normal": "normal",
				"a_color": "color"				
			},
			"uniforms": {
				"u_modelViewMatrix": "modelViewMatrix",
				"u_projectionMatrix": "projectionMatrix",
				"u_normalMatrix": "normalMatrix",
				"u_color": "color",
				"u_roughness": "roughness",
				"u_metallic": "metallic",
				"u_light0Pos": "light0Pos",
				"u_light0Color": "light0Color",
				"u_light1Pos": "light1Pos",
				"u_light1Color": "light1Color"				
			},
			"states": {
				"enable": [
					2929,
					2884
				],
				"functions": {
					"cullFace": [1029]
				}
			}
		}
	},
	"materials": {
		"material_mat8": {
			"technique": "technique_mat8",
			"values": {
				"color": [0.9568627, 0.2627451, 0.2117647, 1],
				"roughness": 1,
				"metallic": 0,
				"light0Pos": [-0.02, 4.11, -0.54, 0],
				"light0Color": [1.28, 1.232075, 1.101177, 0],
				"light1Pos": [0.02, -4.11, 0.54, 0],
				"light1Color": [0.2941177, 0.2953672, 0.32, 0]				
			},
			"name": "material_mat8"
		},
		"material_mat9": {
			"technique": "technique_mat9",
			"values": {
				"color": [0.5450981, 0.7647059, 0.2901961, 1],
				"roughness": 1,
				"metallic": 0,
				"light0Pos": [-0.02, 4.11, -0.54, 0],
				"light0Color": [1.28, 1.232075, 1.101177, 0],
				"light1Pos": [0.02, -4.11, 0.54, 0],
				"light1Color": [0.2941177, 0.2953672, 0.32, 0]				
			},
			"name": "material_mat9"
		}
	},
	"nodes": {
		"node_MeshObject-614789120-PolyPaper8": {
			"name": "node_MeshObject-614789120-PolyPaper8",
			"meshes": [
				"mesh_m0-PolyPaper8_-683126"
			],
			"matrix": [1, 0, 0, 0, 0, 1, 0, 0, 0, 0, 1, 0, 0, 0, 0, 1]
		},
		"node_MeshObject-42710016-PolyPaper9": {
			"name": "node_MeshObject-42710016-PolyPaper9",
			"meshes": [
				"mesh_m1-PolyPaper9_-683132"
			],
			"matrix": [1, 0, 0, 0, 0, 1, 0, 0, 0, 0, 1, 0, 0, 0, 0, 1]
		}
	},
	"scene": "defaultScene",
	"scenes": {
		"defaultScene": {
			"nodes": [
				"node_MeshObject-614789120-PolyPaper8",
				"node_MeshObject-42710016-PolyPaper9"
			],
			"extras": {

			}
		}
	}
}